Coordinates
version=1
nRows=41
nColumns=38
inDegrees=no

Units are S.I. units (second, meters, Newtons, ...)
If the header above contains a line with 'inDegrees', this indicates whether rotational values are in degrees (yes) or radians (no).

endheader
time	pelvis_tilt	pelvis_list	pelvis_rotation	pelvis_tx	pelvis_ty	pelvis_tz	hip_flexion_r	hip_adduction_r	hip_rotation_r	knee_angle_r	ankle_angle_r	subtalar_angle_r	mtp_angle_r	hip_flexion_l	hip_adduction_l	hip_rotation_l	knee_angle_l	ankle_angle_l	subtalar_angle_l	mtp_angle_l	lumbar_extension	lumbar_bending	lumbar_rotation	arm_flex_r	arm_add_r	arm_rot_r	elbow_flex_r	pro_sup_r	wrist_flex_r	wrist_dev_r	arm_flex_l	arm_add_l	arm_rot_l	elbow_flex_l	pro_sup_l	wrist_flex_l	wrist_dev_l
0.72	2.81853	1.34689	-1.09404	0.66404	0.12061	0.931346	0.149363	0.0305244	-0.0581448	0.172613	-0.31745	0	0	-0.46893	-0.110921	-0.0888562	0.24938	-0.0360162	0	0	-0.463563	0.201926	-0.0849236	-0.0422724	-0.587767	0.910752	0.798945	0.515326	0	0	-0.174594	-0.173316	-0.104935	0.675033	1.5708	0	0
0.73	2.80349	1.34521	-1.07705	0.665072	0.130613	0.931118	0.148732	0.0376321	-0.0573434	0.18633	-0.318785	0	0	-0.472034	-0.118986	-0.0920308	0.265664	-0.0361885	0	0	-0.461858	0.206474	-0.0869494	-0.0448912	-0.585201	0.907273	0.797226	0.521454	0	0	-0.176064	-0.173214	-0.106552	0.671784	1.5708	0	0
0.74	2.78585	1.34411	-1.05729	0.666186	0.140834	0.931037	0.146709	0.0456716	-0.0578371	0.191739	-0.333244	0	0	-0.473031	-0.127805	-0.0950993	0.284257	-0.038097	0	0	-0.458775	0.211185	-0.089931	-0.0471192	-0.582034	0.904083	0.794421	0.526364	0	0	-0.178287	-0.173228	-0.108084	0.668024	1.5708	0	0
0.75	2.76586	1.34422	-1.0355	0.667433	0.151365	0.93096	0.144467	0.0537323	-0.0587589	0.194254	-0.357477	0	0	-0.471473	-0.136979	-0.0988281	0.305264	-0.0418039	0	0	-0.45347	0.215428	-0.0934913	-0.0491769	-0.578362	0.902228	0.790518	0.532247	0	0	-0.181433	-0.172822	-0.110757	0.663744	1.5708	0	0
0.76	2.71397	1.34396	-0.985056	0.668283	0.160773	0.931956	0.147997	0.0673687	-0.0618926	0.199365	-0.396975	0	0	-0.462306	-0.149882	-0.10042	0.332356	-0.047838	0	0	-0.449013	0.227094	-0.0916653	-0.0453769	-0.57634	0.90397	0.78204	0.540178	0	0	-0.17402	-0.16755	-0.112556	0.645076	1.5708	0	0
0.77	2.72326	1.34613	-0.990071	0.67027	0.173099	0.930844	0.140866	0.0699712	-0.0575087	0.204643	-0.400208	0	0	-0.462284	-0.156021	-0.106608	0.355219	-0.0526284	0	0	-0.438275	0.222735	-0.100092	-0.0556715	-0.572312	0.900453	0.784287	0.541778	0	0	-0.188165	-0.172648	-0.114846	0.652313	1.5708	0	0
0.78	2.69778	1.34706	-0.963751	0.671867	0.184097	0.93083	0.14123	0.0790723	-0.0521085	0.216251	-0.409541	0	0	-0.454096	-0.166762	-0.110429	0.386868	-0.0611121	0	0	-0.431393	0.226098	-0.105857	-0.0556874	-0.569167	0.902907	0.781184	0.547018	0	0	-0.197343	-0.173158	-0.120502	0.654872	1.5708	0	0
0.79	2.66652	1.34842	-0.932826	0.6735	0.195283	0.930889	0.143473	0.0886911	-0.0439178	0.230987	-0.417747	0	0	-0.443447	-0.177588	-0.112258	0.420775	-0.0720984	0	0	-0.422448	0.229983	-0.110996	-0.0551936	-0.566955	0.908705	0.777963	0.554117	0	0	-0.205674	-0.171547	-0.129102	0.654086	1.5708	0	0
0.8	2.63609	1.34769	-0.903454	0.675194	0.206534	0.931131	0.143406	0.0993589	-0.036539	0.24784	-0.418747	0	0	-0.433231	-0.189172	-0.11324	0.456897	-0.0834631	0	0	-0.415469	0.234735	-0.11369	-0.0569617	-0.56708	0.911747	0.7789	0.557547	0	0	-0.213641	-0.170514	-0.134491	0.654658	1.5708	0	0
0.81	2.6042	1.346	-0.873379	0.676949	0.217876	0.931497	0.141858	0.110679	-0.0305168	0.264281	-0.414895	0	0	-0.421536	-0.201591	-0.11467	0.496447	-0.098333	0	0	-0.408943	0.240058	-0.115601	-0.059047	-0.568514	0.914425	0.781697	0.559962	0	0	-0.222715	-0.16941	-0.140119	0.657058	1.5708	0	0
0.82	2.57504	1.34257	-0.846917	0.678734	0.229251	0.932131	0.136878	0.121975	-0.0264085	0.276392	-0.409739	0	0	-0.409695	-0.214595	-0.116666	0.539018	-0.117177	0	0	-0.404055	0.245735	-0.116477	-0.0610983	-0.571245	0.917287	0.786093	0.56155	0	0	-0.232491	-0.168187	-0.145946	0.660986	1.5708	0	0
0.83	2.55225	1.33822	-0.827742	0.680605	0.240654	0.932924	0.127987	0.13328	-0.0254141	0.283138	-0.404579	0	0	-0.397414	-0.226988	-0.118279	0.585048	-0.140545	0	0	-0.400723	0.250517	-0.116445	-0.06315	-0.574864	0.920748	0.791909	0.562617	0	0	-0.242967	-0.166904	-0.152201	0.666507	1.5708	0	0
0.84	2.51795	1.32903	-0.799936	0.682204	0.251062	0.9348	0.117806	0.148376	-0.0352296	0.28543	-0.410107	0	0	-0.38336	-0.242848	-0.11893	0.635774	-0.173408	0	0	-0.403305	0.261445	-0.110986	-0.0599464	-0.5809	0.928182	0.796503	0.561699	0	0	-0.24599	-0.162163	-0.158602	0.664444	1.5708	0	0
0.85	2.50829	1.32395	-0.796085	0.684358	0.262372	0.93571	0.104594	0.158227	-0.034866	0.288327	-0.405903	0	0	-0.368939	-0.252978	-0.118443	0.68946	-0.195963	0	0	-0.402673	0.263353	-0.107808	-0.0631166	-0.584762	0.930589	0.803689	0.560139	0	0	-0.256268	-0.16201	-0.162707	0.671295	1.5708	0	0
0.86	2.50167	1.31901	-0.796198	0.686657	0.273498	0.936501	0.090867	0.167815	-0.0355932	0.292004	-0.397722	0	0	-0.351849	-0.262683	-0.118706	0.747602	-0.224901	0	0	-0.403387	0.264106	-0.103919	-0.0659352	-0.589239	0.933134	0.812717	0.557503	0	0	-0.267683	-0.162285	-0.16729	0.681135	1.5708	0	0
0.87	2.49668	1.31408	-0.798422	0.688948	0.284335	0.937198	0.076521	0.176875	-0.0368784	0.295162	-0.388032	0	0	-0.332134	-0.271818	-0.118496	0.808281	-0.258752	0	0	-0.405177	0.264419	-0.099325	-0.0674729	-0.594815	0.937159	0.822743	0.555374	0	0	-0.279153	-0.162724	-0.17177	0.6926	1.5708	0	0
0.88	2.49231	1.30891	-0.800866	0.691119	0.294886	0.937806	0.0608898	0.185403	-0.0395784	0.2965	-0.377869	0	0	-0.309884	-0.281112	-0.117364	0.870775	-0.294552	0	0	-0.407781	0.265056	-0.0946654	-0.0685722	-0.60114	0.941083	0.833655	0.552785	0	0	-0.290103	-0.162732	-0.176797	0.704711	1.5708	0	0
0.89	2.48728	1.30295	-0.801875	0.693122	0.305182	0.938381	0.043518	0.193993	-0.0433301	0.29471	-0.368366	0	0	-0.285779	-0.291445	-0.115773	0.933826	-0.327552	0	0	-0.411275	0.266796	-0.0898572	-0.0696484	-0.608016	0.944211	0.845245	0.549263	0	0	-0.300272	-0.162266	-0.182166	0.716977	1.5708	0	0
0.9	2.48316	1.29619	-0.802681	0.694927	0.31524	0.938931	0.024264	0.202529	-0.0474397	0.290323	-0.360518	0	0	-0.260568	-0.302546	-0.113074	0.996666	-0.353611	0	0	-0.415611	0.269435	-0.0848129	-0.0709065	-0.615164	0.947123	0.857077	0.546146	0	0	-0.309613	-0.161844	-0.186589	0.729523	1.5708	0	0
0.91	2.48132	1.28863	-0.804707	0.696531	0.325086	0.939488	0.0031529	0.211055	-0.0501998	0.283776	-0.353878	0	0	-0.235198	-0.314029	-0.10958	1.05822	-0.374709	0	0	-0.421058	0.272653	-0.0798879	-0.0723697	-0.622475	0.948953	0.869071	0.54301	0	0	-0.318308	-0.161454	-0.190156	0.742544	1.5708	0	0
0.92	2.48345	1.28041	-0.809493	0.697997	0.334686	0.94012	-0.0200575	0.219494	-0.0508771	0.27522	-0.347449	0	0	-0.21049	-0.325405	-0.105533	1.11697	-0.395363	0	0	-0.428103	0.275795	-0.0754467	-0.0737113	-0.629352	0.949676	0.880859	0.538729	0	0	-0.326221	-0.161122	-0.193771	0.755944	1.5708	0	0
0.93	2.48975	1.2717	-0.817223	0.699375	0.344006	0.940996	-0.0453624	0.227176	-0.049758	0.26423	-0.342088	0	0	-0.1868	-0.335795	-0.100216	1.17139	-0.414901	0	0	-0.436594	0.278532	-0.0712739	-0.0743965	-0.634611	0.950122	0.890418	0.53364	0	0	-0.332523	-0.161281	-0.196346	0.767999	1.5708	0	0
0.94	2.50097	1.26319	-0.829383	0.700709	0.353089	0.942181	-0.0722643	0.233213	-0.0479539	0.251371	-0.338749	0	0	-0.164279	-0.343881	-0.0943948	1.22016	-0.426599	0	0	-0.44624	0.279913	-0.0670269	-0.0740085	-0.638048	0.951219	0.897051	0.528482	0	0	-0.336425	-0.161847	-0.198154	0.777439	1.5708	0	0
0.95	2.51657	1.25581	-0.845946	0.702057	0.361933	0.943517	-0.0992517	0.237198	-0.0468637	0.238561	-0.337032	0	0	-0.142296	-0.348938	-0.0888393	1.2637	-0.424776	0	0	-0.455995	0.279026	-0.0627443	-0.0727825	-0.63964	0.952946	0.900905	0.523391	0	0	-0.338992	-0.163273	-0.198263	0.785193	1.5708	0	0
0.96	2.53332	1.25046	-0.864144	0.703526	0.370573	0.944802	-0.124259	0.239187	-0.0465033	0.227105	-0.335586	0	0	-0.11968	-0.351497	-0.0841569	1.30316	-0.409603	0	0	-0.464399	0.275759	-0.0584568	-0.0711884	-0.639329	0.954516	0.90219	0.517964	0	0	-0.340349	-0.165264	-0.197971	0.791426	1.5708	0	0
0.97	2.55153	1.24499	-0.883483	0.70485	0.379055	0.946271	-0.149638	0.240584	-0.0486493	0.215199	-0.335517	0	0	-0.098267	-0.352607	-0.0801752	1.33826	-0.383246	0	0	-0.473466	0.272272	-0.0543822	-0.069009	-0.638267	0.955917	0.901936	0.511706	0	0	-0.339559	-0.166901	-0.197614	0.79507	1.5708	0	0
0.98	2.56854	1.24161	-0.902896	0.706405	0.387453	0.947478	-0.172521	0.240584	-0.0496893	0.204262	-0.335301	0	0	-0.0757137	-0.351393	-0.0773254	1.36951	-0.34864	0	0	-0.480883	0.266904	-0.049722	-0.0662741	-0.636249	0.958645	0.900736	0.505092	0	0	-0.338443	-0.168519	-0.197898	0.798305	1.5708	0	0
0.99	2.58597	1.23922	-0.923213	0.707827	0.395716	0.948718	-0.19362	0.239301	-0.0508352	0.195507	-0.334271	0	0	-0.0532652	-0.348023	-0.0755052	1.39418	-0.320877	0	0	-0.487282	0.260726	-0.0452125	-0.0627936	-0.633996	0.962284	0.898441	0.499616	0	0	-0.336256	-0.169717	-0.19775	0.799352	1.5708	0	0
1	2.6057	1.23675	-0.945919	0.709039	0.403793	0.950109	-0.214503	0.236278	-0.0522352	0.187012	-0.333988	0	0	-0.0321342	-0.342736	-0.0741728	1.41206	-0.300596	0	0	-0.494274	0.254135	-0.0410342	-0.0587711	-0.632128	0.965833	0.896194	0.495016	0	0	-0.332934	-0.17049	-0.197448	0.799168	1.5708	0	0
1.01	2.62682	1.23539	-0.970962	0.710346	0.411723	0.951403	-0.23395	0.231811	-0.0510922	0.179705	-0.333355	0	0	-0.0113827	-0.335591	-0.0739328	1.42384	-0.284543	0	0	-0.500529	0.24583	-0.036865	-0.0543721	-0.629873	0.969318	0.893657	0.490407	0	0	-0.330041	-0.171836	-0.196564	0.799441	1.5708	0	0
1.02	2.64918	1.23525	-0.997719	0.711663	0.419583	0.952628	-0.252147	0.226013	-0.0493315	0.173198	-0.331912	0	0	0.00882184	-0.326641	-0.0744636	1.42912	-0.27136	0	0	-0.505613	0.236144	-0.0330943	-0.0497688	-0.627164	0.973197	0.890408	0.486239	0	0	-0.326645	-0.173159	-0.196307	0.798782	1.5708	0	0
1.03	2.67257	1.23489	-1.02564	0.712852	0.427322	0.953933	-0.27072	0.219173	-0.0473389	0.165479	-0.331396	0	0	0.0271375	-0.316824	-0.0762304	1.42795	-0.259868	0	0	-0.510946	0.226341	-0.0297752	-0.044695	-0.624534	0.977467	0.886993	0.482178	0	0	-0.322471	-0.17393	-0.196751	0.797203	1.5708	0	0
1.04	2.69711	1.23444	-1.05435	0.713936	0.434999	0.95517	-0.289689	0.211882	-0.0454469	0.156852	-0.331417	0	0	0.0439074	-0.306267	-0.0793883	1.42148	-0.248844	0	0	-0.516546	0.216389	-0.0274501	-0.0397082	-0.621844	0.980726	0.883984	0.477329	0	0	-0.318555	-0.17475	-0.197666	0.795929	1.5701	0	0
1.05	2.72009	1.23419	-1.0811	0.714905	0.442665	0.956129	-0.308293	0.204796	-0.0432199	0.148072	-0.331061	0	0	0.0597062	-0.295915	-0.083845	1.41082	-0.233946	0	0	-0.521562	0.206858	-0.0257488	-0.0347182	-0.61995	0.984308	0.882008	0.473204	0	0	-0.315899	-0.176343	-0.197541	0.796005	1.56953	0	0
1.06	2.75504	1.24489	-1.11986	0.716065	0.45063	0.955423	-0.320752	0.191239	0.00456489	0.13665	-0.315787	0	0	0.0845139	-0.275245	-0.0887735	1.40089	-0.210905	0	0	-0.515624	0.188134	-0.0290393	-0.0305081	-0.616414	0.989922	0.879913	0.468922	0	0	-0.318467	-0.18051	-0.197335	0.801047	1.56602	0	0
1.07	2.75853	1.235	-1.12568	0.716468	0.457696	0.957661	-0.341596	0.191077	-0.0366817	0.131309	-0.323964	0	0	0.0914039	-0.276085	-0.0945818	1.3781	-0.194848	0	0	-0.528239	0.190283	-0.0240471	-0.0212633	-0.616867	0.997865	0.876485	0.467021	0	0	-0.310053	-0.180372	-0.194	0.794726	1.56496	0	0
1.08	2.77543	1.23517	-1.14385	0.716994	0.465085	0.95815	-0.357382	0.185392	-0.037204	0.122863	-0.32607	0	0	0.105815	-0.266426	-0.0995063	1.35526	-0.175864	0	0	-0.531543	0.18392	-0.0241853	-0.0149251	-0.616848	1.00383	0.87627	0.464812	0	0	-0.307101	-0.182896	-0.191241	0.795128	1.56256	0	0
1.09	2.80142	1.24799	-1.17145	0.717648	0.472918	0.956719	-0.365417	0.174587	0.0102949	0.110465	-0.309605	0	0	0.130771	-0.247198	-0.105034	1.33224	-0.148666	0	0	-0.521296	0.169151	-0.0290428	-0.00983958	-0.614717	1.01187	0.874914	0.459649	0	0	-0.309585	-0.188473	-0.18605	0.799586	1.55612	0	0
1.1	2.80196	1.23917	-1.17085	0.717695	0.479928	0.95848	-0.38398	0.175907	-0.0326918	0.106925	-0.317556	0	0	0.134827	-0.247007	-0.109091	1.29438	-0.137643	0	0	-0.532322	0.172936	-0.0270177	-0.00185268	-0.614639	1.01775	0.872232	0.455581	0	0	-0.301342	-0.189775	-0.180909	0.794497	1.55232	0	0
1.11	2.82983	1.25179	-1.19729	0.71799	0.487687	0.956764	-0.391257	0.16552	0.0102064	0.0952909	-0.306015	0	0	0.156841	-0.226895	-0.111166	1.2596	-0.125413	0	0	-0.522075	0.159339	-0.0336648	0.00149772	-0.61254	1.02308	0.872121	0.449819	0	0	-0.303886	-0.196135	-0.174766	0.800208	1.54427	0	0
1.12	2.84204	1.25482	-1.20673	0.717962	0.495022	0.956565	-0.4021	0.161669	0.00910435	0.0887554	-0.301367	0	0	0.169093	-0.216231	-0.110827	1.21526	-0.120285	0	0	-0.520955	0.155385	-0.0368815	0.00737352	-0.610427	1.02993	0.86877	0.443321	0	0	-0.300161	-0.200393	-0.166986	0.798996	1.53672	0	0
